<svg xmlns="http://www.w3.org/2000/svg" viewBox="0 0 131.54 46.98"><defs><style>.cls-1{fill:#42505f;}.cls-2{fill:#b6ada5;}.cls-3{fill:#4cc0e0;}</style></defs><title>universities-logo</title><g id="Layer_2" data-name="Layer 2"><g id="Main_Navigation" data-name="Main Navigation"><path class="cls-1" d="M11.55,13c0,.31,0,.59,0,.87,0,3.81,0,7.63-.08,11.44a3.9,3.9,0,0,1-2.74,3.92,5.11,5.11,0,0,1-5.4-.93A4.77,4.77,0,0,1,2,24.62C2,21,2,17.34,2,13.7V13H.07L0,13.13c0,4.23,0,8.46.06,12.69A5.38,5.38,0,0,0,2.3,30a7.7,7.7,0,0,0,5.48,1.32,5.79,5.79,0,0,0,5.54-4.74A26.65,26.65,0,0,0,13.57,22c0-3,0-6,0-9Z"/><path class="cls-1" d="M117.67,23.21H109.3a4.4,4.4,0,0,1,4.87-3.82,3.8,3.8,0,0,1,3.5,3.82m-1-4.9a6.07,6.07,0,0,0-6.31.23c-2.41,1.45-3.19,3.79-3.1,6.46a6.09,6.09,0,0,0,3.35,5.69,7.12,7.12,0,0,0,6.57,0,12.72,12.72,0,0,0,1.91-1.39l-1.19-1.4a5.16,5.16,0,0,1-6.26,1.3c-1.72-.76-2.32-2.33-2.49-4.25H119.8c0-.45,0-.84,0-1.23a6.1,6.1,0,0,0-3.16-5.4"/><path class="cls-1" d="M61.47,23.21H53.09A4.42,4.42,0,0,1,58,19.4a3.79,3.79,0,0,1,3.43,3.81m-7.23-4.74c-2.5,1.41-3.31,3.8-3.21,6.53a6.08,6.08,0,0,0,3.35,5.69,7.13,7.13,0,0,0,6.57,0,12.8,12.8,0,0,0,1.92-1.4L61.7,27.92C59.16,29.84,57,30.19,55.05,29a4.41,4.41,0,0,1-2-4.09H63.59c0-.46,0-.87,0-1.28-.33-5.24-5.25-7.49-9.36-5.18"/><path class="cls-1" d="M28.86,28c0-1.82,0-3.64,0-5.46,0-4-3.38-5.49-6.49-4.51a4.68,4.68,0,0,0-2.47,2.09V18H18.08V31.06h1.84c0-2.45,0-4.86,0-7.27a9.32,9.32,0,0,1,.1-1.37,3.47,3.47,0,0,1,3.42-2.87,3.13,3.13,0,0,1,3.38,2.57A7.1,7.1,0,0,1,27,23.55c0,1.69,0,3.38,0,5.06.06,2,1.25,2.89,3.3,2.41V29.56c-1.32-.1-1.42-.21-1.43-1.53"/><path class="cls-1" d="M83.39,24.87a19.94,19.94,0,0,0-2.89-1.5,15.27,15.27,0,0,1-1.93-.94,1.57,1.57,0,0,1,.25-2.81,2.69,2.69,0,0,1,3.3.77l.32.41,1.4-.9a4.39,4.39,0,0,0-5.3-2.1A3.35,3.35,0,0,0,76,20.56a3.14,3.14,0,0,0,1.74,3.56c.74.41,1.56.68,2.32,1.06a10.34,10.34,0,0,1,2.2,1.24,1.76,1.76,0,0,1-.43,2.84,4.21,4.21,0,0,1-4.48-.62,10.7,10.7,0,0,1-.85-1.09l-1.65.69c.42.6.74,1.15,1.14,1.62,1.62,1.91,5.51,1.95,7.29.7a3.62,3.62,0,0,0,.14-5.69"/><path class="cls-1" d="M129.86,24.56a13.2,13.2,0,0,0-1.57-.81c-.82-.36-1.67-.65-2.47-1a1.7,1.7,0,0,1-1.13-1.88,2,2,0,0,1,1.89-1.45,2.72,2.72,0,0,1,2.69,1.43l1.41-.89a4.4,4.4,0,0,0-5.69-2,3.32,3.32,0,0,0-2.19,2.79A3.05,3.05,0,0,0,124.32,24a23.85,23.85,0,0,0,2.29,1.1c.69.32,1.41.59,2.07,1a1.82,1.82,0,0,1,.86,2,1.7,1.7,0,0,1-1.42,1.37,3.93,3.93,0,0,1-4.78-1.91l-1.65.7a11.22,11.22,0,0,0,1.06,1.56c1.74,1.8,3.89,1.89,6.14,1.32a3.24,3.24,0,0,0,2.59-2.81,3.48,3.48,0,0,0-1.62-3.74"/><path class="cls-1" d="M98.76,29.68h-1c-1.39,0-1.91-.49-1.93-1.89,0-2.17,0-4.34,0-6.51,0-.48,0-1,0-1.5h3V17.94h-3V13H93.86v5h-1.5v1.85h1.51v.77c0,2.39,0,4.78,0,7.17s1.25,3.72,3.38,3.75c1.59,0,1.74-.14,1.58-1.72Z"/><path class="cls-1" d="M48.46,17.95a.67.67,0,0,0-.78.5c-.24.65-.53,1.29-.8,1.93L43.65,28c-.11-.22-.2-.36-.27-.52q-1.93-4.51-3.87-9c-.08-.18-.23-.44-.36-.46-.57,0-1.15,0-1.79,0,.07.21.09.31.13.41,1.74,4.07,3.5,8.13,5.21,12.21.21.5.51.53,1,.54a.77.77,0,0,0,.87-.57c1-2.48,2.1-4.94,3.16-7.41L49.91,18c-.57,0-1,0-1.45,0"/><path class="cls-1" d="M68.45,20.12V18H66.63V31.05h1.86c0-2.51,0-5,0-7.42,0-2,.95-3.36,2.72-3.74a10,10,0,0,1,2.08,0v-2c-2.14-.24-3.32.3-4.84,2.27"/><path class="cls-1" d="M36.2,29.66c-.94,0-1.14-.19-1.21-1.14,0-.26,0-.53,0-.79q0-4.5,0-9V18l-.37,0H33.14l-.07.2c0,3.66,0,7.32,0,11a2.29,2.29,0,0,0,3.16,2.2A.58.58,0,0,0,36.6,31a12,12,0,0,0,0-1.31H36.2"/><path class="cls-1" d="M90.64,29.66c-1.07,0-1.23-.17-1.3-1.26,0-.24,0-.48,0-.72q0-4.5,0-9V18H87.51l-.07.08c0,3.72,0,7.45,0,11.17a2,2,0,0,0,2,2.13c1.85,0,1.61,0,1.53-1.69Z"/><path class="cls-1" d="M105.31,29.79l-.09-.13h-.31c-.94,0-1.14-.19-1.21-1.14,0-.26,0-.52,0-.79q0-4.4,0-8.81V18h-1.86l-.05.22c0,3.64,0,7.27,0,10.91a2.86,2.86,0,0,0,.38,1.3c.58,1,1.55,1.15,2.78.88.81-.18.24-1,.37-1.52"/><path class="cls-1" d="M104,14.53a1.25,1.25,0,0,0-1.23-1.34,1.31,1.31,0,0,0-1.37,1.22,1.35,1.35,0,0,0,1.25,1.35A1.32,1.32,0,0,0,104,14.53"/><path class="cls-1" d="M89.65,14.53a1.25,1.25,0,0,0-1.23-1.34,1.31,1.31,0,0,0-1.37,1.22,1.35,1.35,0,0,0,1.25,1.35,1.32,1.32,0,0,0,1.35-1.24"/><path class="cls-1" d="M34,15.78a1.31,1.31,0,0,0,1.33-1.27A1.26,1.26,0,0,0,34,13.2a1.31,1.31,0,0,0-1.35,1.25A1.36,1.36,0,0,0,34,15.78"/><path class="cls-2" d="M7.12,40.56v4.1l-.2-.23C5.08,42,3.23,39.58,1.43,37.12A1.2,1.2,0,0,0,0,36.59V46.71H1.13V38.53l.14.16c1.89,2.5,3.8,5,5.65,7.51a1.17,1.17,0,0,0,1.23.53l.1,0V36.57H7.12Z"/><path class="cls-2" d="M86,45.88a4.8,4.8,0,0,1-.62.07,2.7,2.7,0,0,1-2.63-2.62,2.92,2.92,0,0,1,1.55-2.94,2.74,2.74,0,0,1,3.84,2.41A2.81,2.81,0,0,1,86,45.88m4,.21L90,46h-.21c-.45,0-.61-.16-.66-.61a4,4,0,0,1,0-.44q0-4,0-8v-.4H88v3.81a3.18,3.18,0,0,0-3.4-1.14,3.82,3.82,0,0,0-2.84,4.64,3.54,3.54,0,0,0,2.54,2.89,3.29,3.29,0,0,0,3.74-1,5.19,5.19,0,0,0,.35.76,1.38,1.38,0,0,0,1.49.33c.35-.17.09-.5.15-.76"/><path class="cls-2" d="M28.17,39.36c-.37-.05-.52.1-.64.45C27,41.42,26.41,43,25.82,44.7l-.12-.3c-.54-1.59-1.1-3.17-1.63-4.76-.1-.29-.27-.28-.5-.28s-.37,0-.46.28c-.52,1.56-1.07,3.1-1.61,4.65,0,.11-.09.23-.16.41l-.14-.4q-.81-2.32-1.63-4.64l-.22-.28a9.08,9.08,0,0,0-1,0c0,.14.06.22.09.3.81,2.25,1.63,4.49,2.42,6.74.11.31.27.32.53.34s.37-.14.45-.36q.78-2.3,1.57-4.59c0-.12.1-.23.17-.38l1.84,5.31c.71,0,.71,0,.93-.58l2.05-5.67c.13-.36.25-.72.38-1.11a4.84,4.84,0,0,1-.64,0"/><path class="cls-2" d="M34.95,45.44c1.94-2.62,3.87-5.24,5.82-7.84a1.31,1.31,0,0,0,.18-1h-7v1h5.48l-.2.31c-1.92,2.59-3.84,5.19-5.78,7.78a1.29,1.29,0,0,0-.23,1H41v-1H34.78Z"/><path class="cls-2" d="M72.17,46l0,.06,0-.06c-.5,0-.72-.09-.82-.33.1.24.31.29.82.33"/><path class="cls-2" d="M68.2,45.88a5.06,5.06,0,0,1-.62.08,2.71,2.71,0,0,1-2.65-2.61,2.93,2.93,0,0,1,1.54-3,2.74,2.74,0,0,1,3.85,2.43,2.79,2.79,0,0,1-2.12,3m4,.21,0-.06c-.5,0-.72-.09-.81-.33a2,2,0,0,1-.07-.67V39.38H70.2v1a3,3,0,0,0-1.72-1.15,3.87,3.87,0,0,0-2,.07,3.6,3.6,0,0,0-1.69,1.13A4.1,4.1,0,0,0,65.12,46a3.53,3.53,0,0,0,2.52.95,3.07,3.07,0,0,0,2.57-1.22,6.38,6.38,0,0,0,.34.75,1.31,1.31,0,0,0,1.48.36c.39-.12.12-.51.18-.77"/><path class="cls-2" d="M58.88,46l0,.06,0-.06c-.51,0-.72-.09-.82-.33.09.24.31.28.82.33"/><path class="cls-2" d="M54.9,45.88a5.35,5.35,0,0,1-.62.08,2.7,2.7,0,0,1-2.64-2.62,2.92,2.92,0,0,1,1.55-2.95A2.74,2.74,0,0,1,57,42.81a2.81,2.81,0,0,1-2.13,3.07m4,.21,0-.06c-.51,0-.72-.09-.82-.33A1.94,1.94,0,0,1,58,45c0-.17,0-.35,0-.52V39.39H56.88v1a3.28,3.28,0,0,0-3.44-1.1,3.56,3.56,0,0,0-2.8,3,3.84,3.84,0,0,0,1.47,4,3.52,3.52,0,0,0,2.49.71,3,3,0,0,0,2.31-1.21,5,5,0,0,0,.36.77,1.39,1.39,0,0,0,1.49.33c.34-.17.09-.5.15-.76"/><path class="cls-2" d="M43.32,42.31a2.43,2.43,0,0,1,2.63-2.14A2.15,2.15,0,0,1,48,42.31Zm4.1-2.75a3.41,3.41,0,0,0-3.54.13,3.75,3.75,0,0,0-1.74,3.59,3.59,3.59,0,0,0,1.21,2.78,3.94,3.94,0,0,0,3.36.79,3.4,3.4,0,0,0,2.06-1.18L48.13,45q-2,1.56-3.6.68a2.64,2.64,0,0,1-1.32-2.35h5.95l0-.15c0-.18,0-.37,0-.55a3.43,3.43,0,0,0-1.78-3"/><path class="cls-2" d="M11.63,42.31a2.4,2.4,0,0,1,2.51-2.15,2.16,2.16,0,0,1,2.19,2.15Zm4.11-2.75a3.41,3.41,0,0,0-3.54.11,3.75,3.75,0,0,0-1.76,3.62,3.58,3.58,0,0,0,1.23,2.78,3.94,3.94,0,0,0,3.36.77,3.4,3.4,0,0,0,2.09-1.23l-.7-.66a3.11,3.11,0,0,1-3.6.68,2.51,2.51,0,0,1-1.25-2.35h5.94c0-.27,0-.5,0-.71a3.43,3.43,0,0,0-1.76-3"/><path class="cls-2" d="M80.57,45.87c-.71,0-.77-.11-.78-.82,0-.15,0-.29,0-.44,0-.95,0-1.89,0-2.84a2.44,2.44,0,0,0-1-2,2.85,2.85,0,0,0-4,.81V39.39h-1v7.33h1c0-1.17,0-2.31,0-3.46a11.66,11.66,0,0,1,.06-1.4,1.89,1.89,0,0,1,1.41-1.54,1.81,1.81,0,0,1,2.11.71,3.36,3.36,0,0,1,.35,1.4c.05,1,0,2,0,3s.73,1.59,1.85,1.31c0-.17,0-.36,0-.54Z"/><path class="cls-2" d="M61.5,44.38V36.57H60.45l0,.16c0,2.82,0,5.64,0,8.46A1.66,1.66,0,0,0,62.36,47c.56,0,.58,0,.58-.57V46c-1.51,0-1.41-.4-1.44-1.58"/><path class="cls-3" d="M66.62,7.52a2.18,2.18,0,0,1-2.08-2.33,2.15,2.15,0,0,1,2.15-2.28,2.2,2.2,0,0,1,2.15,2.35,2.21,2.21,0,0,1-2.22,2.26m3.72,0c-.63,0-.71-.06-.74-.65V2.28h-.87v.79a6,6,0,0,0-.56-.52,2.88,2.88,0,0,0-3.52.33,3.2,3.2,0,0,0-.91,3A3,3,0,0,0,66.6,8.31a2.5,2.5,0,0,0,2.18-1c.19,1,.7,1,1.36.93l.2-.16a3.3,3.3,0,0,0,0-.54"/><path class="cls-3" d="M38.94,6a2.16,2.16,0,0,1-2,1.5A2.12,2.12,0,0,1,34.8,5.6l0-.27a2.21,2.21,0,0,1,1.11-2.16,2.06,2.06,0,0,1,2.35.22A2.44,2.44,0,0,1,38.94,6m.89.79V2.28H39v.78a6,6,0,0,0-.56-.52,2.88,2.88,0,0,0-3.5.32,3.11,3.11,0,0,0-.92,3A2.8,2.8,0,0,0,36,8.18a2.62,2.62,0,0,0,3-.86c.18.91.66,1,1.33.92l.22-.17a2.73,2.73,0,0,0,0-.51c-.67,0-.72-.09-.74-.76"/><path class="cls-3" d="M55.06,7.52A2.18,2.18,0,0,1,53,5.18a2.14,2.14,0,0,1,2.15-2.27,2.2,2.2,0,0,1,2.15,2.38,2.21,2.21,0,0,1-2.2,2.23m3.7,0c-.67,0-.72-.09-.74-.76V2.28h-.87v.78a4.48,4.48,0,0,0-.56-.51,2.69,2.69,0,0,0-3,0,3,3,0,0,0-1.4,3.26,3,3,0,0,0,3.71,2.42,2.37,2.37,0,0,0,1.32-.9c.18.92.66,1,1.34.94.16,0,.26-.07.24-.26a4.27,4.27,0,0,1,0-.43"/><path class="cls-3" d="M19.45,2.6a1.53,1.53,0,0,1-1.4,1.49c-.61,0-1.23,0-1.85,0V.89a17.92,17.92,0,0,1,2,0,1.55,1.55,0,0,1,1.28,1.7m-1-2.48C17.45,0,16.38,0,15.31,0V8.12h.89V4.93c.68,0,1.34,0,2,0a2.38,2.38,0,0,0,2.15-2.16A2.34,2.34,0,0,0,18.49.12"/><path class="cls-3" d="M5.6,4.63A1.88,1.88,0,0,1,7.51,2.91,1.75,1.75,0,0,1,9.34,4.63ZM8.54,2.28a2.73,2.73,0,0,0-2.94.56,3.2,3.2,0,0,0-.93,2.88,2.73,2.73,0,0,0,.88,1.82,3.1,3.1,0,0,0,2.74.68,2.77,2.77,0,0,0,1.63-.94l-.53-.6a2.28,2.28,0,0,1-2.69.64A2,2,0,0,1,5.5,5.39h4.74a6.76,6.76,0,0,0,0-.76,2.63,2.63,0,0,0-1.7-2.35"/><path class="cls-3" d="M33.16,2.27c-.33,0-.59,0-.84,0l-.25.12c-.41.46-.8.92-1.2,1.38l-1.23,1.4V.05h-.83V8.12h.84c0-.55,0-1.07,0-1.6l.05-.26c.21-.27.45-.52.68-.79L32.34,8l.18.14c.3,0,.6,0,.95,0L30.93,4.84l2.22-2.58"/><polygon class="cls-3" points="47.17 0.06 47.17 0.88 49.37 0.88 49.37 8.13 50.27 8.13 50.27 0.86 52.46 0.86 52.46 0.06 47.17 0.06"/><polygon class="cls-3" points="0 0.06 0 0.88 2.21 0.88 2.21 8.13 3.1 8.13 3.1 0.86 5.29 0.86 5.29 0.06 0 0.06"/><path class="cls-3" d="M60.8,3.24v-1H60V8.12h.84V7.8c0-1,0-2.07,0-3.1a1.54,1.54,0,0,1,1.65-1.61l.5,0V2.21a2,2,0,0,0-2.16,1"/><path class="cls-3" d="M43.23,7.49c-.46,0-.57-.09-.6-.55V2.28H41.8v.17c0,1.57,0,3.14,0,4.71,0,1,.67,1.2,1.42,1.08l.17-.16a5.22,5.22,0,0,0,0-.59Z"/><path class="cls-3" d="M42.2,1.28a.56.56,0,0,0,.59-.56.58.58,0,0,0-1.16,0,.56.56,0,0,0,.57.58"/><path class="cls-3" d="M24.37,7.52a2.25,2.25,0,0,1-2.28-2.33,2.26,2.26,0,1,1,4.52,0,2.24,2.24,0,0,1-2.24,2.32m.07-5.42a3.11,3.11,0,0,0-.23,6.21,3.06,3.06,0,0,0,3.25-3.09,3.06,3.06,0,0,0-3-3.12"/><rect class="cls-3" x="22.32" y="0.42" width="4.05" height="0.7"/></g></g></svg>